<svg width="512" height="512" viewBox="0 0 512 512" fill="none" xmlns="http://www.w3.org/2000/svg">
<path fill-rule="evenodd" clip-rule="evenodd" d="M412 0C467.228 0 512 44.7715 512 100V412C512 467.228 467.228 512 412 512H100C44.7715 512 0 467.228 0 412V100C0 44.7715 44.7715 0 100 0H412ZM70.707 212C55.2965 212 45.6752 228.695 53.4023 242.028L160.633 427.057C167.786 439.401 180.974 447 195.241 447H441.52C456.879 447 466.506 430.403 458.879 417.069L435.575 376.329C428.45 363.875 415.202 356.192 400.854 356.191H231.497C227.968 356.191 224.7 354.33 222.898 351.294L208.296 326.692C202.362 316.693 209.568 304.037 221.196 304.037H332.602C339.733 304.037 346.325 300.239 349.903 294.069L380.077 242.033C387.808 228.699 378.188 212 362.775 212H70.707ZM196.264 65C181.958 65.0001 168.742 72.6392 161.602 85.0352L136.269 129.018C128.589 142.35 138.213 159 153.6 159H404.736C419.042 159 432.258 151.361 439.397 138.964L464.73 94.9824C472.41 81.6493 462.787 65.0004 447.4 65H196.264Z" fill="url(#paint0_radial_98_15)"/>
<defs>
<radialGradient id="paint0_radial_98_15" cx="0" cy="0" r="1" gradientUnits="userSpaceOnUse" gradientTransform="translate(256 256) scale(256)">
<stop offset="0.230769" stop-color="#125DC7"/>
<stop offset="1"/>
</radialGradient>
</defs>
</svg>
